<svg version="1.1" xmlns="http://www.w3.org/2000/svg" viewBox="0 0 1758.1959221483248 4906.38575073748" width="3516.3918442966497" height="9812.77150147496">
  <!-- svg-source:excalidraw -->
  
  <defs>
    <style class="style-fonts">
      @font-face {
        font-family: "Virgil";
        src: url("https://excalidraw.com/Virgil.woff2");
      }
      @font-face {
        font-family: "Cascadia";
        src: url("https://excalidraw.com/Cascadia.woff2");
      }
    </style>
  </defs>
  <rect x="0" y="0" width="1758.1959221483248" height="4906.38575073748" fill="#ffffff"></rect><g stroke-linecap="round" transform="translate(1046.172739583555 354.0905585150949) rotate(0 118.2524929163119 105.03236976902144)"><path d="M32 0 M32 0 C75.9 -0.09, 117.94 -2.14, 204.5 0 M32 0 C80.75 0.46, 128.93 1.57, 204.5 0 M204.5 0 C224.78 0.92, 234.63 10.31, 236.5 32 M204.5 0 C224.53 -0.66, 237.66 9.74, 236.5 32 M236.5 32 C236.37 75.46, 236.36 121.38, 236.5 178.06 M236.5 32 C237.31 63.27, 236.37 96.16, 236.5 178.06 M236.5 178.06 C237.99 199.23, 224.17 210.18, 204.5 210.06 M236.5 178.06 C236.68 197.81, 223.56 210.4, 204.5 210.06 M204.5 210.06 C153.67 208.25, 97.97 210.55, 32 210.06 M204.5 210.06 C156.16 208.5, 107.75 209.13, 32 210.06 M32 210.06 C9.16 208.21, -1.59 201.16, 0 178.06 M32 210.06 C11.2 210.96, -0.65 201.33, 0 178.06 M0 178.06 C0.26 128.8, -1.29 81.9, 0 32 M0 178.06 C-0.05 137.42, 0.38 97.56, 0 32 M0 32 C-0.59 12.46, 9.05 -0.8, 32 0 M0 32 C-0.1 10.31, 9.46 -1.37, 32 0" stroke="#000000" stroke-width="1" fill="none"></path></g><g transform="translate(1091.653275102406 425.52292828411646) rotate(0 72.77195739746094 33.59999999999991)"><text x="72.77195739746094" y="0" font-family="Virgil, Segoe UI Emoji" font-size="28px" fill="#000000" text-anchor="middle" style="white-space: pre;" direction="ltr" dominant-baseline="text-before-edge">Mostrar </text><text x="72.77195739746094" y="33.6" font-family="Virgil, Segoe UI Emoji" font-size="28px" fill="#000000" text-anchor="middle" style="white-space: pre;" direction="ltr" dominant-baseline="text-before-edge">información</text></g><g stroke-linecap="round" transform="translate(1048.4164988604534 602.382720546656) rotate(0 118.2524929163119 105.03236976902144)"><path d="M32 0 M32 0 C94.09 -0.51, 152.16 1.91, 204.5 0 M32 0 C83.55 1.4, 136.75 1.72, 204.5 0 M204.5 0 C224.36 1.01, 237.63 10.95, 236.5 32 M204.5 0 C223.83 -1.39, 237.09 10.39, 236.5 32 M236.5 32 C235.79 71.79, 237.24 113.48, 236.5 178.06 M236.5 32 C237.48 79.3, 237.68 128.24, 236.5 178.06 M236.5 178.06 C235.83 198.55, 226.77 208.56, 204.5 210.06 M236.5 178.06 C234.34 197.44, 224.16 209.49, 204.5 210.06 M204.5 210.06 C141.08 210.92, 75.91 210.31, 32 210.06 M204.5 210.06 C142.09 209.25, 80.84 209.15, 32 210.06 M32 210.06 C11.88 211.68, -0.43 199.11, 0 178.06 M32 210.06 C10.18 210.9, 1.67 199.18, 0 178.06 M0 178.06 C1.13 139.07, 0.92 97.34, 0 32 M0 178.06 C-0.81 132.46, 0.06 88.35, 0 32 M0 32 C0.79 10.95, 11.98 0.89, 32 0 M0 32 C1.24 12.52, 11.08 0.34, 32 0" stroke="#000000" stroke-width="1" fill="none"></path></g><g transform="translate(1060.0310294354567 673.8150903156766) rotate(0 106.6379623413086 33.59999999999991)"><text x="106.6379623413086" y="0" font-family="Virgil, Segoe UI Emoji" font-size="28px" fill="#000000" text-anchor="middle" style="white-space: pre;" direction="ltr" dominant-baseline="text-before-edge">Esperar a dar </text><text x="106.6379623413086" y="33.6" font-family="Virgil, Segoe UI Emoji" font-size="28px" fill="#000000" text-anchor="middle" style="white-space: pre;" direction="ltr" dominant-baseline="text-before-edge">ENTER</text></g><g stroke-linecap="round" transform="translate(1040.8311910624943 867.0782317517114) rotate(0 118.2524929163119 105.03236976902144)"><path d="M32 0 M32 0 C70.47 -0.05, 108.79 -1.65, 204.5 0 M32 0 C89.23 -0.15, 146.48 -1.53, 204.5 0 M204.5 0 C226.15 -1.64, 234.68 11.59, 236.5 32 M204.5 0 C226.09 -0.51, 236.56 8.94, 236.5 32 M236.5 32 C235.69 79.59, 238.65 125.08, 236.5 178.06 M236.5 32 C235.58 87.79, 234.86 144.02, 236.5 178.06 M236.5 178.06 C235.58 199.45, 225 209.03, 204.5 210.06 M236.5 178.06 C238.21 197.31, 226.64 209.65, 204.5 210.06 M204.5 210.06 C160.93 206.55, 117.21 209.36, 32 210.06 M204.5 210.06 C163.66 209.87, 122.34 208.84, 32 210.06 M32 210.06 C12 208.24, 0.39 200.52, 0 178.06 M32 210.06 C11.53 212.16, 1.88 199.9, 0 178.06 M0 178.06 C-0.38 132.03, 0.48 83.75, 0 32 M0 178.06 C0.14 124.89, -0.18 69.14, 0 32 M0 32 C0.68 10.25, 9.79 -0.68, 32 0 M0 32 C1.68 11.83, 9.48 -0.56, 32 0" stroke="#000000" stroke-width="1" fill="none"></path></g><g transform="translate(1059.1097154729468 938.510601520733) rotate(0 99.97396850585938 33.59999999999991)"><text x="99.97396850585938" y="0" font-family="Virgil, Segoe UI Emoji" font-size="28px" fill="#000000" text-anchor="middle" style="white-space: pre;" direction="ltr" dominant-baseline="text-before-edge">Mostrar menú </text><text x="99.97396850585938" y="33.6" font-family="Virgil, Segoe UI Emoji" font-size="28px" fill="#000000" text-anchor="middle" style="white-space: pre;" direction="ltr" dominant-baseline="text-before-edge">principal</text></g><g stroke-linecap="round" transform="translate(996.8263818119704 1108.2697329676375) rotate(0 157.17506108726957 113.11160767863794)"><path d="M197.5 28.5 M197.5 28.5 C222.92 48.44, 251.96 67.21, 274.85 85.5 M197.5 28.5 C224.74 49.96, 252.62 70.75, 274.85 85.5 M274.85 85.5 C312.55 115.92, 315.31 115.26, 274.85 142.5 M274.85 85.5 C312.19 113.71, 312.96 113.89, 274.85 142.5 M274.85 142.5 C245.48 161.89, 216.43 186.29, 197.5 197.72 M274.85 142.5 C245.98 162.75, 219.44 182.94, 197.5 197.72 M197.5 197.72 C159.58 224.88, 159.27 224.61, 118.5 197.72 M197.5 197.72 C157.16 225, 157.09 225.06, 118.5 197.72 M118.5 197.72 C92.48 176.94, 63.77 161.48, 39.5 142.5 M118.5 197.72 C97.56 182.33, 77.95 168.86, 39.5 142.5 M39.5 142.5 C-1.55 113.05, -1.55 114.01, 39.5 85.5 M39.5 142.5 C-2.13 114.18, -0.86 112.75, 39.5 85.5 M39.5 85.5 C53.72 73.94, 71.52 63.29, 118.5 28.5 M39.5 85.5 C60.53 70.41, 81.6 55.11, 118.5 28.5 M118.5 28.5 C156.63 -0.96, 157.47 1.62, 197.5 28.5 M118.5 28.5 C159.63 0.01, 157.69 -1.36, 197.5 28.5" stroke="#000000" stroke-width="1" fill="none"></path></g><g transform="translate(1086.0279489156637 1204.5255368069556) rotate(0 67.8859634399414 16.800000000000182)"><text x="67.8859634399414" y="0" font-family="Virgil, Segoe UI Emoji" font-size="28px" fill="#000000" text-anchor="middle" style="white-space: pre;" direction="ltr" dominant-baseline="text-before-edge">Opcion = 1</text></g><g stroke-linecap="round"><g transform="translate(1164.6412659921393 563.8969237254778) rotate(0 1.0508913777133557 19.43578336597784)"><path d="M1.18 -0.1 C1.35 6.49, 1.54 33.48, 1.77 40.06 M0.33 -1.19 C0.29 4.98, 0.55 31.23, 0.87 38.2" stroke="#000000" stroke-width="1" fill="none"></path></g></g><mask></mask><g stroke-linecap="round"><g transform="translate(1163.2901256666942 813.6723056231731) rotate(0 0.12345663209998747 25.822741413562653)"><path d="M-0.07 0.54 C0.37 9.01, 1.35 43.65, 1.81 51.87 M-1.56 -0.22 C-1.19 8.44, 0.32 41.72, 1 50.18" stroke="#000000" stroke-width="1" fill="none"></path></g></g><mask></mask><g stroke-linecap="round"><g transform="translate(1152.29868051319 1075.7251578034138) rotate(0 0.6425000144207615 18.490380530651237)"><path d="M-0.44 -1.06 C-0.58 5.3, -0.63 30.69, -0.66 37.09 M1.53 0.99 C1.77 7.56, 2.24 31.85, 1.7 38.04" stroke="#000000" stroke-width="1" fill="none"></path></g></g><mask></mask><g stroke-linecap="round" transform="translate(684.6543629572379 1376.2969044182273) rotate(0 130.525039077786 57.604158501472284)"><path d="M28.8 0 M28.8 0 C72.69 1.07, 114.58 1.3, 232.25 0 M28.8 0 C75.98 1.54, 122 2.24, 232.25 0 M232.25 0 C250.31 1.03, 262.41 10.33, 261.05 28.8 M232.25 0 C249.32 1.55, 262.66 7.85, 261.05 28.8 M261.05 28.8 C260.42 47.35, 263.53 69.62, 261.05 86.41 M261.05 28.8 C261.21 46.91, 260.89 66.16, 261.05 86.41 M261.05 86.41 C259.21 105.68, 253.1 114.74, 232.25 115.21 M261.05 86.41 C261.39 104.03, 250.85 116.36, 232.25 115.21 M232.25 115.21 C175.4 115.66, 115.95 116.28, 28.8 115.21 M232.25 115.21 C172.79 114.11, 111.64 113.18, 28.8 115.21 M28.8 115.21 C11.22 113.87, 1.32 104.46, 0 86.41 M28.8 115.21 C10.5 114.53, -1.05 105.06, 0 86.41 M0 86.41 C-2.08 71.28, 0.7 54.34, 0 28.8 M0 86.41 C0.37 74.03, -0.41 60.21, 0 28.8 M0 28.8 C0.61 9.41, 9.94 0.36, 28.8 0 M0 28.8 C1.91 7.92, 11.74 0.65, 28.8 0" stroke="#000000" stroke-width="1" fill="none"></path></g><g transform="translate(706.8754469568994 1417.1010629196999) rotate(0 108.303955078125 16.800000000000182)"><text x="108.303955078125" y="0" font-family="Virgil, Segoe UI Emoji" font-size="28px" fill="#000000" text-anchor="middle" style="white-space: pre;" direction="ltr" dominant-baseline="text-before-edge">Realizar sorteo</text></g><g stroke-linecap="round"><g transform="translate(1005.3890301394822 1223.1524739885554) rotate(0 -91.139875248826 -0.6024509442986528)"><path d="M-1 0.3 C-31.43 0.03, -151.95 -1.21, -182.38 -1.51 M0.67 -0.59 C-29.86 -0.67, -152.08 -0.09, -182.95 -0.03" stroke="#000000" stroke-width="1" fill="none"></path></g></g><mask></mask><g stroke-linecap="round"><g transform="translate(822.2981208822175 1221.768776064906) rotate(0 -1.8354531984077767 76.54673376356641)"><path d="M0.36 -1.05 C-0.37 24.48, -3.27 126.82, -4.03 152.64 M-0.91 1.01 C-1.3 26.78, -1.6 128.96, -1.76 154.15" stroke="#000000" stroke-width="1" fill="none"></path></g></g><mask></mask><g transform="translate(817.808345896311 1180.5886169715195) rotate(0 11.577987670898438 16.800000000000182)"><text x="0" y="0" font-family="Virgil, Segoe UI Emoji" font-size="28px" fill="#000000" text-anchor="start" style="white-space: pre;" direction="ltr" dominant-baseline="text-before-edge">Si</text></g><g stroke-linecap="round" transform="translate(1027.8927902320956 10) rotate(0 139.80044504318482 139.80044504318494)"><path d="M134.51 -0.21 C149 -2.87, 166.41 2.07, 180.95 6.57 C195.49 11.07, 209.67 18.02, 221.73 26.77 C233.8 35.53, 244.63 46.9, 253.36 59.11 C262.08 71.32, 269.88 85.57, 274.07 100.02 C278.27 114.47, 279.16 130.67, 278.53 145.83 C277.89 160.98, 275.68 176.89, 270.26 190.96 C264.83 205.03, 256.07 218.54, 245.99 230.24 C235.91 241.94, 222.94 253.52, 209.77 261.17 C196.61 268.81, 181.59 273.24, 166.98 276.13 C152.36 279.02, 136.84 280.43, 122.09 278.5 C107.35 276.58, 92.16 271.44, 78.5 264.59 C64.85 257.73, 51.03 248.12, 40.18 237.38 C29.34 226.65, 20.01 213.74, 13.43 200.18 C6.85 186.62, 2.51 170.88, 0.68 155.99 C-1.15 141.11, -0.67 125.69, 2.45 110.88 C5.58 96.07, 11.38 80.19, 19.44 67.15 C27.49 54.1, 38.92 42.16, 50.76 32.59 C62.6 23.02, 76.07 15.31, 90.48 9.72 C104.88 4.12, 128.96 0.04, 137.2 -0.97 C145.44 -1.98, 139.88 1.19, 139.94 3.67 M128.94 0.3 C143.06 -3, 161.21 1.19, 175.68 5.24 C190.15 9.3, 203.21 16.29, 215.78 24.64 C228.34 32.99, 241.83 43.77, 251.1 55.35 C260.37 66.92, 266.87 79.78, 271.42 94.08 C275.97 108.38, 278.56 125.78, 278.41 141.14 C278.26 156.5, 275.47 171.86, 270.53 186.25 C265.59 200.63, 257.82 215.66, 248.74 227.47 C239.66 239.29, 228.52 249.28, 216.03 257.15 C203.53 265.02, 188.62 271.16, 173.77 274.7 C158.93 278.23, 142.04 279.34, 126.98 278.37 C111.91 277.4, 97.29 275.15, 83.39 268.87 C69.49 262.59, 54.96 251.1, 43.58 240.71 C32.19 230.32, 21.92 219.79, 15.07 206.52 C8.23 193.24, 4.86 175.94, 2.49 161.05 C0.13 146.15, -1.4 131.89, 0.87 117.17 C3.14 102.45, 8.48 86.03, 16.1 72.73 C23.71 59.43, 34.91 47.59, 46.55 37.36 C58.18 27.13, 72.14 17.48, 85.9 11.36 C99.65 5.24, 121.77 1.95, 129.07 0.64 C136.37 -0.67, 129.6 1.18, 129.69 3.49" stroke="#000000" stroke-width="1" fill="none"></path></g><g transform="translate(1116.75340929598 133.14660234025177) rotate(0 51.08598327636719 16.800000000000182)"><text x="51.08598327636719" y="0" font-family="Virgil, Segoe UI Emoji" font-size="28px" fill="#000000" text-anchor="middle" style="white-space: pre;" direction="ltr" dominant-baseline="text-before-edge">INICIO</text></g><g stroke-linecap="round"><g transform="translate(819.177348467259 1492.6878781176538) rotate(0 0.6043124783570875 74.41976308255335)"><path d="M1.12 0.34 C1.17 25.08, 0.81 123.19, 0.6 147.87 M0.24 -0.53 C0.18 24.46, 0.27 124.89, 0.09 149.37" stroke="#000000" stroke-width="1" fill="none"></path></g></g><mask></mask><g stroke-linecap="round" transform="translate(675.7965138137347 1646.5068796256946) rotate(0 141.18563350321847 59.939806642036274)"><path d="M29.97 0 M29.97 0 C103.1 -0.51, 171.7 -2.58, 252.4 0 M29.97 0 C110.54 1.66, 190.48 2.12, 252.4 0 M252.4 0 C273.9 0.84, 281.96 10.87, 282.37 29.97 M252.4 0 C273.04 -1.14, 284.3 9.55, 282.37 29.97 M282.37 29.97 C282.26 53.05, 281.23 75.66, 282.37 89.91 M282.37 29.97 C281.96 49.72, 281.61 68.55, 282.37 89.91 M282.37 89.91 C283.7 110.29, 273.06 120.19, 252.4 119.88 M282.37 89.91 C282.59 110.58, 271.98 122, 252.4 119.88 M252.4 119.88 C195.88 120.29, 143.36 120.56, 29.97 119.88 M252.4 119.88 C202.41 118.4, 150.77 118.7, 29.97 119.88 M29.97 119.88 C11.9 120.16, 1.02 109.66, 0 89.91 M29.97 119.88 C8.93 118.32, 2.19 107.8, 0 89.91 M0 89.91 C0.62 67.89, 0.53 41.48, 0 29.97 M0 89.91 C-0.64 72.49, 0.4 54.51, 0 29.97 M0 29.97 C-0.54 10.02, 11.97 -1.63, 29.97 0 M0 29.97 C-2.01 11.53, 9.56 -0.66, 29.97 0" stroke="#000000" stroke-width="1" fill="none"></path></g><g transform="translate(681.728195290586 1672.8466862677305) rotate(0 135.2539520263672 33.59999999999991)"><text x="135.2539520263672" y="0" font-family="Virgil, Segoe UI Emoji" font-size="28px" fill="#000000" text-anchor="middle" style="white-space: pre;" direction="ltr" dominant-baseline="text-before-edge">Mostrar resultado </text><text x="135.2539520263672" y="33.6" font-family="Virgil, Segoe UI Emoji" font-size="28px" fill="#000000" text-anchor="middle" style="white-space: pre;" direction="ltr" dominant-baseline="text-before-edge">del sorteo</text></g><g stroke-linecap="round" transform="translate(672.8238795732068 1800.5445382490925) rotate(0 141.18563350321847 59.939806642036274)"><path d="M29.97 0 M29.97 0 C85.26 0.31, 138.48 -0.57, 252.4 0 M29.97 0 C93.79 -0.26, 157.55 1.14, 252.4 0 M252.4 0 C271.01 -0.2, 281.38 9.45, 282.37 29.97 M252.4 0 C274.61 0.01, 283.39 10.27, 282.37 29.97 M282.37 29.97 C280.04 54.1, 281.11 78.97, 282.37 89.91 M282.37 29.97 C282.61 53.65, 283.51 75.5, 282.37 89.91 M282.37 89.91 C281.29 111.34, 273.13 118.36, 252.4 119.88 M282.37 89.91 C283.64 111.64, 271.96 120.37, 252.4 119.88 M252.4 119.88 C207.65 120.24, 161.68 121.49, 29.97 119.88 M252.4 119.88 C201 119.89, 147.17 120.19, 29.97 119.88 M29.97 119.88 C9.63 119.6, -0.82 108.45, 0 89.91 M29.97 119.88 C9.93 119.37, 0.32 108.85, 0 89.91 M0 89.91 C-0.89 76.89, -0.39 66.31, 0 29.97 M0 89.91 C-0.06 67.89, 0.71 47.05, 0 29.97 M0 29.97 C0.53 8.77, 9.61 1.54, 29.97 0 M0 29.97 C-1.31 10.11, 9.78 1.06, 29.97 0" stroke="#000000" stroke-width="1" fill="none"></path></g><g transform="translate(685.4475471340425 1826.8843448911284) rotate(0 128.5619659423828 33.59999999999991)"><text x="128.5619659423828" y="0" font-family="Virgil, Segoe UI Emoji" font-size="28px" fill="#000000" text-anchor="middle" style="white-space: pre;" direction="ltr" dominant-baseline="text-before-edge">Cargar el tablero </text><text x="128.5619659423828" y="33.6" font-family="Virgil, Segoe UI Emoji" font-size="28px" fill="#000000" text-anchor="middle" style="white-space: pre;" direction="ltr" dominant-baseline="text-before-edge">inicial</text></g><g stroke-linecap="round" transform="translate(673.3059358245157 2124.1839330221483) rotate(0 141.18563350321847 59.939806642036274)"><path d="M29.97 0 M29.97 0 C83.9 0.83, 141.86 1.28, 252.4 0 M29.97 0 C114.45 -1.75, 200.07 -1.06, 252.4 0 M252.4 0 C274.26 -0.57, 283.63 9.2, 282.37 29.97 M252.4 0 C271.52 2.27, 281.8 9.24, 282.37 29.97 M282.37 29.97 C283.98 49.01, 283.79 69.09, 282.37 89.91 M282.37 29.97 C282.45 50.89, 282.48 69.85, 282.37 89.91 M282.37 89.91 C281.62 109.81, 271.39 118.74, 252.4 119.88 M282.37 89.91 C281.71 110.85, 272.74 118.19, 252.4 119.88 M252.4 119.88 C168.68 120.64, 82.64 119.71, 29.97 119.88 M252.4 119.88 C177.82 120.61, 103.38 121.12, 29.97 119.88 M29.97 119.88 C10.76 120.09, 1.88 110.94, 0 89.91 M29.97 119.88 C8.13 117.59, -1.35 110.25, 0 89.91 M0 89.91 C0.18 68.23, 0.68 47.48, 0 29.97 M0 89.91 C0.32 73.66, -0.95 56.22, 0 29.97 M0 29.97 C-0.24 9.89, 8.71 1.07, 29.97 0 M0 29.97 C-2.21 8.78, 9.5 -1.38, 29.97 0" stroke="#000000" stroke-width="1" fill="none"></path></g><g transform="translate(678.5516126626951 2150.523739664184) rotate(0 135.93995666503906 33.600000000000364)"><text x="135.93995666503906" y="0" font-family="Virgil, Segoe UI Emoji" font-size="28px" fill="#000000" text-anchor="middle" style="white-space: pre;" direction="ltr" dominant-baseline="text-before-edge">Mostrar nombre de </text><text x="135.93995666503906" y="33.6" font-family="Virgil, Segoe UI Emoji" font-size="28px" fill="#000000" text-anchor="middle" style="white-space: pre;" direction="ltr" dominant-baseline="text-before-edge">columnas</text></g><g stroke-linecap="round" transform="translate(670.3558872703427 2467.7040727407966) rotate(0 141.18563350321847 59.939806642036274)"><path d="M29.97 0 M29.97 0 C86.48 -0.93, 143.25 -2.05, 252.4 0 M29.97 0 C74.65 -0.07, 119.77 0.06, 252.4 0 M252.4 0 C273.72 1.81, 282.14 10.74, 282.37 29.97 M252.4 0 C271.76 1.66, 280.17 8.67, 282.37 29.97 M282.37 29.97 C281.69 50.6, 283.53 71.75, 282.37 89.91 M282.37 29.97 C282.71 42.95, 283.03 55.9, 282.37 89.91 M282.37 89.91 C281.45 111.78, 271.2 119.89, 252.4 119.88 M282.37 89.91 C282.26 110.3, 273 119.98, 252.4 119.88 M252.4 119.88 C174.81 118.58, 96.38 118.85, 29.97 119.88 M252.4 119.88 C184.55 120.69, 114.38 120.63, 29.97 119.88 M29.97 119.88 C8.69 120.87, -0.83 109.94, 0 89.91 M29.97 119.88 C10.65 120.5, 1.35 107.94, 0 89.91 M0 89.91 C-0.59 71.68, -1.26 55.39, 0 29.97 M0 89.91 C0.07 72.31, 0.61 52.4, 0 29.97 M0 29.97 C0.68 9.31, 10.47 -1.33, 29.97 0 M0 29.97 C-1.36 8.69, 11.72 -1.16, 29.97 0" stroke="#000000" stroke-width="1" fill="none"></path></g><g transform="translate(679.1995560518815 2494.0438793828325) rotate(0 132.3419647216797 33.600000000000364)"><text x="132.3419647216797" y="0" font-family="Virgil, Segoe UI Emoji" font-size="28px" fill="#000000" text-anchor="middle" style="white-space: pre;" direction="ltr" dominant-baseline="text-before-edge">Calcular el nombre </text><text x="132.3419647216797" y="33.6" font-family="Virgil, Segoe UI Emoji" font-size="28px" fill="#000000" text-anchor="middle" style="white-space: pre;" direction="ltr" dominant-baseline="text-before-edge">de la fila</text></g><g stroke-linecap="round" transform="translate(669.1995974183276 3150.942825930073) rotate(0 141.18563350321847 59.939806642036274)"><path d="M29.97 0 M29.97 0 C105.47 -1.41, 183.1 0.5, 252.4 0 M29.97 0 C76.84 -0.73, 125.5 -0.6, 252.4 0 M252.4 0 C270.42 -0.77, 280.8 8.46, 282.37 29.97 M252.4 0 C271.87 -1.41, 283.43 10.59, 282.37 29.97 M282.37 29.97 C283.97 44.87, 281.84 60.86, 282.37 89.91 M282.37 29.97 C282.02 50.11, 282.86 69.08, 282.37 89.91 M282.37 89.91 C283.44 109.7, 273.42 121.12, 252.4 119.88 M282.37 89.91 C282.86 111.42, 272.12 117.77, 252.4 119.88 M252.4 119.88 C195.37 117.05, 133.33 118.73, 29.97 119.88 M252.4 119.88 C205.79 120.02, 157.39 121.02, 29.97 119.88 M29.97 119.88 C10.86 120.47, 0.03 108.9, 0 89.91 M29.97 119.88 C8.06 118.64, 0.94 110.61, 0 89.91 M0 89.91 C1.98 77.24, 2.29 60.52, 0 29.97 M0 89.91 C-0.13 74.82, -0.47 58.49, 0 29.97 M0 29.97 C-1.32 8.81, 10.32 -1.89, 29.97 0 M0 29.97 C0.38 10.53, 9.77 1.02, 29.97 0" stroke="#000000" stroke-width="1" fill="none"></path></g><g transform="translate(717.2852705943976 3194.08263257211) rotate(0 93.09996032714844 16.800000000000182)"><text x="93.09996032714844" y="0" font-family="Virgil, Segoe UI Emoji" font-size="28px" fill="#000000" text-anchor="middle" style="white-space: pre;" direction="ltr" dominant-baseline="text-before-edge">Imprimir celda</text></g><g stroke-linecap="round" transform="translate(669.3953165737298 2318.2807406057036) rotate(0 141.18563350321847 59.939806642036274)"><path d="M29.97 0 M29.97 0 C90.32 2.25, 154.2 -0.6, 252.4 0 M29.97 0 C98.27 2.35, 166.92 2.15, 252.4 0 M252.4 0 C273.58 0.91, 280.63 8.51, 282.37 29.97 M252.4 0 C270.65 2, 281.69 11.1, 282.37 29.97 M282.37 29.97 C283.82 46.05, 282.86 64.76, 282.37 89.91 M282.37 29.97 C281.54 49.69, 281.69 70.38, 282.37 89.91 M282.37 89.91 C282.07 110.26, 273.53 120.22, 252.4 119.88 M282.37 89.91 C280.6 111.66, 270.28 119.93, 252.4 119.88 M252.4 119.88 C203.33 121.2, 153.09 121.26, 29.97 119.88 M252.4 119.88 C181.4 120.54, 109.32 120.5, 29.97 119.88 M29.97 119.88 C11.91 119.96, 1.37 109.12, 0 89.91 M29.97 119.88 C8.15 120.39, 0.08 107.59, 0 89.91 M0 89.91 C-1.78 74.05, -1.93 55.67, 0 29.97 M0 89.91 C-0.29 66.7, 0.48 44, 0 29.97 M0 29.97 C-0.93 9.29, 11.83 -0.49, 29.97 0 M0 29.97 C-0.71 11.55, 8.66 2.09, 29.97 0" stroke="#000000" stroke-width="1" fill="none"></path></g><g transform="translate(674.6409934119092 2344.6205472477395) rotate(0 135.93995666503906 33.600000000000364)"><text x="135.93995666503906" y="0" font-family="Virgil, Segoe UI Emoji" font-size="28px" fill="#000000" text-anchor="middle" style="white-space: pre;" direction="ltr" dominant-baseline="text-before-edge">Mostrar nombre de </text><text x="135.93995666503906" y="33.6" font-family="Virgil, Segoe UI Emoji" font-size="28px" fill="#000000" text-anchor="middle" style="white-space: pre;" direction="ltr" dominant-baseline="text-before-edge">columnas</text></g><g stroke-linecap="round" transform="translate(667.9030798432652 1949.2920706045006) rotate(0 141.18563350321847 59.939806642036274)"><path d="M29.97 0 M29.97 0 C88.37 -2.43, 149.95 0.69, 252.4 0 M29.97 0 C76.5 -0.34, 122.14 -0.17, 252.4 0 M252.4 0 C272.42 1.29, 282.86 9.43, 282.37 29.97 M252.4 0 C271.36 -0.74, 281.66 11.07, 282.37 29.97 M282.37 29.97 C281.61 46.39, 283.21 57.82, 282.37 89.91 M282.37 29.97 C282.56 43.42, 283.34 55.81, 282.37 89.91 M282.37 89.91 C282.05 111, 271.18 118.27, 252.4 119.88 M282.37 89.91 C284.03 108.6, 271.37 121.24, 252.4 119.88 M252.4 119.88 C186.15 120.2, 117.98 118.67, 29.97 119.88 M252.4 119.88 C168.16 120.14, 84.29 119.36, 29.97 119.88 M29.97 119.88 C9.31 119.79, -1.03 110.28, 0 89.91 M29.97 119.88 C11.71 121.92, 2.25 112.03, 0 89.91 M0 89.91 C-0.45 77.92, 0.19 62.39, 0 29.97 M0 89.91 C0.61 75.34, 0.82 62.08, 0 29.97 M0 29.97 C-0.38 8, 10.3 -0.12, 29.97 0 M0 29.97 C-0.3 7.75, 10.02 -2.25, 29.97 0" stroke="#000000" stroke-width="1" fill="none"></path></g><g transform="translate(683.2007586345696 1958.8318772465373) rotate(0 125.88795471191406 50.399999999999636)"><text x="125.88795471191406" y="0" font-family="Virgil, Segoe UI Emoji" font-size="28px" fill="#000000" text-anchor="middle" style="white-space: pre;" direction="ltr" dominant-baseline="text-before-edge">Presionar ENTER </text><text x="125.88795471191406" y="33.6" font-family="Virgil, Segoe UI Emoji" font-size="28px" fill="#000000" text-anchor="middle" style="white-space: pre;" direction="ltr" dominant-baseline="text-before-edge">para mostrar el </text><text x="125.88795471191406" y="67.2" font-family="Virgil, Segoe UI Emoji" font-size="28px" fill="#000000" text-anchor="middle" style="white-space: pre;" direction="ltr" dominant-baseline="text-before-edge">tablero</text></g><g stroke-linecap="round" transform="translate(684.029672903243 3335.774824463233) rotate(0 123.16056982238138 88.49917003932023)"><path d="M155 22.25 M155 22.25 C169.64 32.92, 183.1 41.96, 215.32 66.75 M155 22.25 C171.76 35.03, 190.47 46.92, 215.32 66.75 M215.32 66.75 C248.2 88.36, 247.1 87.6, 215.32 111.25 M215.32 66.75 C247.93 88.4, 244.14 87.17, 215.32 111.25 M215.32 111.25 C194.91 127.37, 172.68 142.49, 155 154.75 M215.32 111.25 C195.19 126.65, 172.56 142.69, 155 154.75 M155 154.75 C123.23 176.22, 123.17 177.87, 93 154.75 M155 154.75 C123.74 179.1, 122.37 177.61, 93 154.75 M93 154.75 C81.86 144.69, 67.17 136.33, 31 111.25 M93 154.75 C75.6 142.08, 56.85 128.75, 31 111.25 M31 111.25 C0.83 88.42, 1.74 87.77, 31 66.75 M31 111.25 C-0.04 87.96, 0.89 89.45, 31 66.75 M31 66.75 C48.8 54.54, 68.56 40.56, 93 22.25 M31 66.75 C50.82 52.29, 71.35 38.08, 93 22.25 M93 22.25 C123.64 -1.58, 124 -0.58, 155 22.25 M93 22.25 C125.82 1.82, 126.13 2.23, 155 22.25" stroke="#000000" stroke-width="1" fill="none"></path></g><g transform="translate(757.3539763691213 3390.4244094828937) rotate(0 49.7559814453125 33.600000000000364)"><text x="49.7559814453125" y="0" font-family="Virgil, Segoe UI Emoji" font-size="28px" fill="#000000" text-anchor="middle" style="white-space: pre;" direction="ltr" dominant-baseline="text-before-edge">valor =</text><text x="49.7559814453125" y="33.6" font-family="Virgil, Segoe UI Emoji" font-size="28px" fill="#000000" text-anchor="middle" style="white-space: pre;" direction="ltr" dominant-baseline="text-before-edge">00</text></g><g stroke-linecap="round" transform="translate(377.4116412514154 3479.9159960841043) rotate(0 130.39189514871225 102.11806668984445)"><path d="M32 0 M32 0 C81.4 0.33, 132.44 0.1, 228.78 0 M32 0 C84.93 -0.79, 139.27 -1.16, 228.78 0 M228.78 0 C250.67 -1.58, 262.1 9.83, 260.78 32 M228.78 0 C249.12 -2.19, 261.37 9.3, 260.78 32 M260.78 32 C259.72 79.98, 262.02 124.28, 260.78 172.24 M260.78 32 C262.8 77.61, 262.52 123.23, 260.78 172.24 M260.78 172.24 C262.24 193.23, 250.7 203.51, 228.78 204.24 M260.78 172.24 C262.08 195.58, 251.41 206.42, 228.78 204.24 M228.78 204.24 C152.57 201.84, 75.48 203.6, 32 204.24 M228.78 204.24 C163.69 204.91, 96.99 204.25, 32 204.24 M32 204.24 C8.96 205.67, -0.7 192.65, 0 172.24 M32 204.24 C9.05 201.94, 1.46 194.4, 0 172.24 M0 172.24 C0.87 141.9, -1.38 113.87, 0 32 M0 172.24 C-0.26 119.83, -0.19 65.79, 0 32 M0 32 C-0.41 11.1, 10.83 1.86, 32 0 M0 32 C-1.25 8.61, 10.07 0.23, 32 0" stroke="#000000" stroke-width="1" fill="none"></path></g><g transform="translate(426.43556307249105 3565.2340627739486) rotate(0 81.36797332763672 16.800000000000182)"><text x="81.36797332763672" y="0" font-family="Virgil, Segoe UI Emoji" font-size="28px" fill="#000000" text-anchor="middle" style="white-space: pre;" direction="ltr" dominant-baseline="text-before-edge">Dejar vacío</text></g><g stroke-linecap="round" transform="translate(929.6632248976625 3527.1299953141297) rotate(0 123.16056982238138 88.49917003932023)"><path d="M155 22.25 M155 22.25 C175.08 36.2, 191.22 49.7, 215.32 66.75 M155 22.25 C176.88 38.91, 199.91 56.38, 215.32 66.75 M215.32 66.75 C244.54 89.19, 245.36 90.97, 215.32 111.25 M215.32 66.75 C248.07 90.58, 244.96 91.13, 215.32 111.25 M215.32 111.25 C197.25 122.75, 180.91 136.82, 155 154.75 M215.32 111.25 C198.63 122.84, 182.87 133.78, 155 154.75 M155 154.75 C125.28 175.36, 124.21 178.28, 93 154.75 M155 154.75 C123.28 176.76, 124.55 176.47, 93 154.75 M93 154.75 C76.64 145.25, 60.91 130.87, 31 111.25 M93 154.75 C72.6 141.23, 52.86 126.98, 31 111.25 M31 111.25 C0.48 88.54, 0.44 90.86, 31 66.75 M31 111.25 C-1.46 89.53, 1.26 88.66, 31 66.75 M31 66.75 C55.81 50.04, 82.33 29.99, 93 22.25 M31 66.75 C47.06 55.19, 62.11 44, 93 22.25 M93 22.25 C122.82 1.44, 125.9 -1.01, 155 22.25 M93 22.25 C123.33 2.03, 124.77 1.5, 155 22.25" stroke="#000000" stroke-width="1" fill="none"></path></g><g transform="translate(1002.9875283635406 3581.7795803337885) rotate(0 49.7559814453125 33.600000000000364)"><text x="49.7559814453125" y="0" font-family="Virgil, Segoe UI Emoji" font-size="28px" fill="#000000" text-anchor="middle" style="white-space: pre;" direction="ltr" dominant-baseline="text-before-edge">valor =</text><text x="49.7559814453125" y="33.6" font-family="Virgil, Segoe UI Emoji" font-size="28px" fill="#000000" text-anchor="middle" style="white-space: pre;" direction="ltr" dominant-baseline="text-before-edge">01</text></g><g stroke-linecap="round" transform="translate(718.7577153848094 3834.461700091886) rotate(0 130.39189514871225 102.11806668984445)"><path d="M32 0 M32 0 C108.95 2.88, 187.93 -0.38, 228.78 0 M32 0 C93.18 0.89, 155.28 1.43, 228.78 0 M228.78 0 C249.38 -0.4, 262.6 12.53, 260.78 32 M228.78 0 C248.66 -2.02, 262.97 10.79, 260.78 32 M260.78 32 C259.74 88.63, 259.2 142.09, 260.78 172.24 M260.78 32 C260.25 68.92, 259.21 105.57, 260.78 172.24 M260.78 172.24 C259.46 192, 250.65 204.79, 228.78 204.24 M260.78 172.24 C262.54 191.4, 252.13 203.67, 228.78 204.24 M228.78 204.24 C157.22 204.8, 81.78 204.51, 32 204.24 M228.78 204.24 C161.93 205.72, 93.51 205.13, 32 204.24 M32 204.24 C12.22 205.86, 1.92 193.69, 0 172.24 M32 204.24 C9.43 204.65, 1.57 192.8, 0 172.24 M0 172.24 C-0.61 133.05, -0.79 93.29, 0 32 M0 172.24 C0.52 143.07, 0.97 115.34, 0 32 M0 32 C1.95 10.71, 10.25 -0.93, 32 0 M0 32 C1.85 12.62, 8.38 1.07, 32 0" stroke="#000000" stroke-width="1" fill="none"></path></g><g transform="translate(781.5436458728773 3919.7797667817304) rotate(0 67.60596466064453 16.800000000000182)"><text x="67.60596466064453" y="0" font-family="Virgil, Segoe UI Emoji" font-size="28px" fill="#000000" text-anchor="middle" style="white-space: pre;" direction="ltr" dominant-baseline="text-before-edge">Imprimir B</text></g><g stroke-linecap="round" transform="translate(1092.05135315838 3829.4348786879636) rotate(0 130.39189514871225 102.11806668984445)"><path d="M32 0 M32 0 C80.65 -0.81, 131.84 0.12, 228.78 0 M32 0 C108.35 -0.99, 184.95 -1.57, 228.78 0 M228.78 0 C251.96 -0.69, 261.52 10.46, 260.78 32 M228.78 0 C251.74 0.86, 260.28 11.78, 260.78 32 M260.78 32 C260.12 67.99, 260.82 102.18, 260.78 172.24 M260.78 32 C259.89 69.08, 260.28 106.67, 260.78 172.24 M260.78 172.24 C260.04 191.59, 251.15 205.29, 228.78 204.24 M260.78 172.24 C263.04 194.73, 248.35 205.65, 228.78 204.24 M228.78 204.24 C162.22 205.38, 97.59 204.06, 32 204.24 M228.78 204.24 C170.27 206.32, 110.6 204.53, 32 204.24 M32 204.24 C10.14 205.09, 1.52 195.55, 0 172.24 M32 204.24 C8.76 204.23, -0.5 191.62, 0 172.24 M0 172.24 C-0.64 116.21, -1.26 61.44, 0 32 M0 172.24 C1.79 116.91, 0.58 59.83, 0 32 M0 32 C-0.73 12.34, 9.74 -0.39, 32 0 M0 32 C1.16 11.16, 11.11 -1.08, 32 0" stroke="#000000" stroke-width="1" fill="none"></path></g><g transform="translate(1154.571277176721 3914.752945377808) rotate(0 67.8719711303711 16.800000000000182)"><text x="67.8719711303711" y="0" font-family="Virgil, Segoe UI Emoji" font-size="28px" fill="#000000" text-anchor="middle" style="white-space: pre;" direction="ltr" dominant-baseline="text-before-edge">Imprimir W</text></g><g stroke-linecap="round" transform="translate(596.5710748439758 2622.7688159156824) rotate(0 199 178)"><path d="M250 44.75 M250 44.75 C276.53 68.6, 302.69 93.4, 348 134.25 M250 44.75 C285.56 77.55, 322.04 110.03, 348 134.25 M348 134.25 C397.01 177.07, 396.18 180.03, 348 223.75 M348 134.25 C397.67 179.6, 396.04 178.84, 348 223.75 M348 223.75 C310.68 256.07, 271.57 289.17, 250 311.25 M348 223.75 C318.03 250.37, 286.85 276.07, 250 311.25 M250 311.25 C199.97 356.34, 200.84 354.58, 150 311.25 M250 311.25 C201.28 356.73, 199.06 355.29, 150 311.25 M150 311.25 C119.06 282.88, 87.79 257.25, 50 223.75 M150 311.25 C119.4 285.33, 88.67 258.97, 50 223.75 M50 223.75 C-1.12 179.09, 0.07 178.43, 50 134.25 M50 223.75 C1.08 179.46, 0.09 180.06, 50 134.25 M50 134.25 C83.6 107.92, 111.14 80.02, 150 44.75 M50 134.25 C88.88 101.07, 127.48 65.34, 150 44.75 M150 44.75 C200.94 1.3, 200.14 -0.26, 250 44.75 M150 44.75 C200.04 -1.57, 199.9 0.52, 250 44.75" stroke="#000000" stroke-width="1" fill="none"></path></g><g transform="translate(705.0331186061828 2750.3688159156827) rotate(0 90.53795623779297 50.399999999999636)"><text x="90.53795623779297" y="0" font-family="Virgil, Segoe UI Emoji" font-size="28px" fill="#000000" text-anchor="middle" style="white-space: pre;" direction="ltr" dominant-baseline="text-before-edge">El contador </text><text x="90.53795623779297" y="33.6" font-family="Virgil, Segoe UI Emoji" font-size="28px" fill="#000000" text-anchor="middle" style="white-space: pre;" direction="ltr" dominant-baseline="text-before-edge">es diferente </text><text x="90.53795623779297" y="67.2" font-family="Virgil, Segoe UI Emoji" font-size="28px" fill="#000000" text-anchor="middle" style="white-space: pre;" direction="ltr" dominant-baseline="text-before-edge">de 0</text></g><g stroke-linecap="round"><g transform="translate(796.6162424813351 2969.441895723083) rotate(0 -2.8865273154208353 90.76535432540459)"><path d="M0.16 0.65 C-0.93 31.07, -4.84 151.64, -5.93 181.59 M-1.22 -0.05 C-1.97 30.07, -3.09 149.43, -3.56 179.62" stroke="#000000" stroke-width="1" fill="none"></path></g></g><mask></mask><g transform="translate(818.966267190777 3053.0300690126933) rotate(0 67.6199722290039 16.800000000000182)"><text x="0" y="0" font-family="Virgil, Segoe UI Emoji" font-size="28px" fill="#000000" text-anchor="start" style="white-space: pre;" direction="ltr" dominant-baseline="text-before-edge">Verdadero</text></g><g stroke-linecap="round"><g transform="translate(799.6424519741417 3269.8481476123925) rotate(0 -0.2960462344967709 35.94637408142535)"><path d="M0 -0.95 C0.21 11.34, 1.06 60.85, 0.82 72.84 M-1.45 1.17 C-1.26 13.18, 0.09 59.31, 0.49 71.06" stroke="#000000" stroke-width="1" fill="none"></path></g></g><mask></mask><g stroke-linecap="round"><g transform="translate(690.0739388928985 3422.7491704863405) rotate(0 -102.33615018001603 24.26156336269196)"><path d="M1.08 0.54 C-29.41 -0.4, -148.4 -13.74, -182.65 -4.46 C-216.91 4.83, -200.81 46.38, -204.45 56.25 M0.19 -0.22 C-30.44 -0.45, -149.18 -11.97, -183.36 -2.9 C-217.54 6.17, -201.46 44.48, -204.89 54.2" stroke="#000000" stroke-width="1" fill="none"></path></g></g><mask></mask><g transform="translate(518.3547822320352 3370.317273682931) rotate(0 11.577987670898438 16.800000000000182)"><text x="0" y="0" font-family="Virgil, Segoe UI Emoji" font-size="28px" fill="#000000" text-anchor="start" style="white-space: pre;" direction="ltr" dominant-baseline="text-before-edge">Si</text></g><g stroke-linecap="round"><g transform="translate(374.50724875825836 3571.509381457563) rotate(0 87.15700505500467 -175.87596076126738)"><path d="M-1.07 0.32 C-17.99 1.13, -89.48 62.97, -101.69 4.56 C-113.9 -53.86, -140.05 -288.64, -74.34 -350.17 C-8.64 -411.69, 231.41 -362.16, 292.55 -364.59 M0.57 -0.56 C-16.49 0.42, -90.04 64.29, -102.63 5.72 C-115.23 -52.86, -140.84 -290.47, -75.01 -352.02 C-9.19 -413.57, 230.78 -361.47, 292.3 -363.56" stroke="#000000" stroke-width="1" fill="none"></path></g></g><mask></mask><g stroke-linecap="round"><g transform="translate(921.7483238841642 3416.866553265336) rotate(0 74.3106079167236 53.36032496214739)"><path d="M0.92 -0.37 C24.02 0.4, 117.19 -15.05, 139.58 3.84 C161.98 22.72, 136.01 94.81, 135.3 112.93 M-0.05 -1.61 C22.79 -1.1, 116.25 -17.16, 138.62 2.13 C160.99 21.41, 134.74 95.58, 134.17 114.12" stroke="#000000" stroke-width="1" fill="none"></path></g></g><mask></mask><g transform="translate(988.9245213669828 3373.8622764379234) rotate(0 16.771995544433594 16.800000000000182)"><text x="0" y="0" font-family="Virgil, Segoe UI Emoji" font-size="28px" fill="#000000" text-anchor="start" style="white-space: pre;" direction="ltr" dominant-baseline="text-before-edge">No</text></g><g stroke-linecap="round"><g transform="translate(936.9783391472033 3616.1605575168105) rotate(0 -52.575280894269326 96.61924632761838)"><path d="M-0.64 0.46 C-16.75 0.2, -78.53 -37.87, -95.62 -2.67 C-112.72 32.54, -101.81 175.98, -103.21 211.68 M1.22 -0.34 C-15.14 -0.88, -79.08 -40.12, -96.58 -4.61 C-114.08 30.9, -102.54 176.55, -103.77 212.7" stroke="#000000" stroke-width="1" fill="none"></path></g></g><mask></mask><g transform="translate(817.7316182889726 3565.6567327023968) rotate(0 11.577987670898438 16.800000000000182)"><text x="0" y="0" font-family="Virgil, Segoe UI Emoji" font-size="28px" fill="#000000" text-anchor="start" style="white-space: pre;" direction="ltr" dominant-baseline="text-before-edge">Si</text></g><g stroke-linecap="round"><g transform="translate(1169.8764288600987 3615.0628027427774) rotate(0 36.37473568288374 99.81970321069093)"><path d="M0.81 -0.13 C12.37 -0.21, 60.86 -35.39, 70.39 0.55 C79.92 36.48, 60.15 179.53, 58.01 215.48 M-0.22 -1.24 C11.16 -1.13, 60.25 -37.45, 69.91 -1.09 C79.58 35.27, 59.74 181.03, 57.78 216.9" stroke="#000000" stroke-width="1" fill="none"></path></g></g><mask></mask><g transform="translate(1206.323074859649 3561.717287680365) rotate(0 16.771995544433594 16.800000000000182)"><text x="0" y="0" font-family="Virgil, Segoe UI Emoji" font-size="28px" fill="#000000" text-anchor="start" style="white-space: pre;" direction="ltr" dominant-baseline="text-before-edge">No</text></g><g stroke-linecap="round"><g transform="translate(1354.8902460978604 3917.764785066076) rotate(0 -131.70621276515385 -350.31784808436987)"><path d="M-1.02 0.06 C18.98 -1.48, 110.85 106.19, 120.11 -8.68 C129.37 -123.54, 139.73 -572.81, 54.54 -689.13 C-30.65 -805.45, -316.83 -703.61, -391.04 -706.6 M0.64 -0.95 C20.99 -2.85, 113.27 104.27, 122.21 -10.21 C131.15 -124.7, 139.74 -571.47, 54.27 -687.87 C-31.2 -804.27, -316.24 -705.53, -390.6 -708.62" stroke="#000000" stroke-width="1" fill="none"></path></g></g><mask></mask><g stroke-linecap="round"><g transform="translate(716.5626630976863 3932.434848654164) rotate(0 -352.77307607457396 -383.60576586880234)"><path d="M1.02 0 C-104.43 2.58, -528.03 145.9, -632.63 15.43 C-737.23 -115.04, -724.8 -653.08, -626.59 -782.79 C-528.38 -912.5, -140.76 -766.5, -43.36 -762.83 M0.09 -1.05 C-105.53 1.19, -529.15 144.28, -633.66 13.7 C-738.16 -116.88, -725.34 -655.2, -626.93 -784.52 C-528.52 -913.84, -140.52 -765.71, -43.22 -762.19" stroke="#000000" stroke-width="1" fill="none"></path></g></g><mask></mask><g stroke-linecap="round"><g transform="translate(813.7311757976283 1765.6481091976802) rotate(0 0.8858663346442199 18.752846039857104)"><path d="M-0.6 -1.16 C-0.59 5.22, -0.3 30.91, 0.01 37.29 M1.28 0.85 C1.69 7.48, 2.45 32.44, 2.37 38.66" stroke="#000000" stroke-width="1" fill="none"></path></g></g><mask></mask><g stroke-linecap="round"><g transform="translate(808.8945472298853 1921.0366564182086) rotate(0 -0.20085231524410574 14.05328445168152)"><path d="M0.07 -1.19 C-0.07 3.37, -1.05 23.11, -1.15 27.96 M-1.35 0.8 C-1.11 5.47, 0.99 24.61, 0.95 29.3" stroke="#000000" stroke-width="1" fill="none"></path></g></g><mask></mask><g stroke-linecap="round"><g transform="translate(809.0300270216992 2068.699468510569) rotate(0 0.08041929391924896 25.344862272018872)"><path d="M-0.81 -0.11 C-0.68 8.28, -0.09 42.25, -0.02 50.89 M0.96 -1.22 C1.09 7.25, -0.17 42.87, -0.47 51.91" stroke="#000000" stroke-width="1" fill="none"></path></g></g><mask></mask><g stroke-linecap="round"><g transform="translate(807.5532972909318 2246.8994256777005) rotate(0 -1.0549721932198963 36.48671617665332)"><path d="M1.04 -0.25 C0.68 12.15, -1.63 62.11, -2.26 74.4 M0.12 -1.43 C-0.37 10.59, -2.51 59.76, -3.15 72.4" stroke="#000000" stroke-width="1" fill="none"></path></g></g><mask></mask><g stroke-linecap="round"><g transform="translate(806.5744557950793 2439.0199314536712) rotate(0 -0.15375811649812476 14.321583778662898)"><path d="M0.46 -0.04 C0.46 4.71, 0.02 23.75, -0.23 28.45 M-0.76 -1.11 C-0.79 3.82, -0.41 24.72, -0.56 29.75" stroke="#000000" stroke-width="1" fill="none"></path></g></g><mask></mask><g stroke-linecap="round"><g transform="translate(798.5743740884886 2591.7429137702693) rotate(0 0.04802738944920293 18.784606553838785)"><path d="M-0.84 -0.27 C-0.7 6.24, 0 31.36, -0.17 38.09 M0.92 -1.46 C1.08 5.25, -0.56 32.42, -0.61 39.03" stroke="#000000" stroke-width="1" fill="none"></path></g></g><mask></mask><g stroke-linecap="round"><g transform="translate(993.073698119962 2805.9384447161774) rotate(0 307.461171803822 810.5802962871121)"><path d="M-1.02 -0.86 C112.31 -1.81, 570.18 -207.85, 679.33 -6.26 C788.47 195.33, 776.89 967.8, 653.84 1208.68 C530.79 1449.57, 72.04 1354.38, -58.97 1439.06 C-189.99 1523.73, -120.11 1670.67, -132.26 1716.75 M0.64 1.31 C113.97 0.03, 569.7 -209.61, 678.98 -8.19 C788.25 193.24, 779.24 968.51, 656.28 1209.86 C533.32 1451.22, 72.3 1355.91, -58.81 1439.94 C-189.92 1523.97, -118.42 1668.31, -130.37 1714.06" stroke="#000000" stroke-width="1" fill="none"></path></g></g><mask></mask><g transform="translate(1037.756454274207 2731.482352198658) rotate(0 36.41398620605469 16.800000000000182)"><text x="0" y="0" font-family="Virgil, Segoe UI Emoji" font-size="28px" fill="#000000" text-anchor="start" style="white-space: pre;" direction="ltr" dominant-baseline="text-before-edge">Falso</text></g><g stroke-linecap="round" transform="translate(569.5401346769099 4525.668544377524) rotate(0 290.6915837607743 70.65195604248402)"><path d="M32 0 M32 0 C146.36 0.29, 261.39 0.22, 549.38 0 M32 0 C170.95 1.13, 310.26 1.52, 549.38 0 M549.38 0 C570.86 -1.04, 581.42 9.11, 581.38 32 M549.38 0 C569.06 -0.24, 583.6 8.84, 581.38 32 M581.38 32 C580.02 48.58, 583.35 62.49, 581.38 109.3 M581.38 32 C581.85 50.69, 581.14 70.57, 581.38 109.3 M581.38 109.3 C582.9 130.01, 569.31 142.63, 549.38 141.3 M581.38 109.3 C579.72 131.13, 568.63 141.62, 549.38 141.3 M549.38 141.3 C436.51 141.79, 322.67 140.73, 32 141.3 M549.38 141.3 C363.01 141.38, 176.79 140.93, 32 141.3 M32 141.3 C10.31 140.94, 1.38 129.4, 0 109.3 M32 141.3 C10.42 140.21, 1.94 131.54, 0 109.3 M0 109.3 C-2.39 85.2, 0.07 57.35, 0 32 M0 109.3 C-0.59 90.09, -0.5 70.06, 0 32 M0 32 C1.69 10.98, 11.42 -1.12, 32 0 M0 32 C-1.98 11.65, 9.09 -0.32, 32 0" stroke="#000000" stroke-width="1" fill="none"></path></g><g transform="translate(663.5458053517468 4579.520500420009) rotate(0 196.6859130859375 16.800000000000182)"><text x="196.6859130859375" y="0" font-family="Virgil, Segoe UI Emoji" font-size="28px" fill="#000000" text-anchor="middle" style="white-space: pre;" direction="ltr" dominant-baseline="text-before-edge">Imprimir de quien es el turno</text></g><g stroke-linecap="round" transform="translate(558.8971174406563 4753.082739809004) rotate(0 304.40005719278827 71.65150546423774)"><path d="M32 0 M32 0 C182.42 0.55, 334.18 -0.37, 576.8 0 M32 0 C211.25 1.51, 390.78 1.69, 576.8 0 M576.8 0 C600.13 0.98, 610.18 8.87, 608.8 32 M576.8 0 C597.46 0.82, 610.71 9.5, 608.8 32 M608.8 32 C609.31 51.9, 609.42 71.26, 608.8 111.3 M608.8 32 C609.74 56.65, 609.52 82.16, 608.8 111.3 M608.8 111.3 C608.21 131.01, 599.89 142.59, 576.8 143.3 M608.8 111.3 C608.13 131.69, 600.05 141.03, 576.8 143.3 M576.8 143.3 C404.28 141.11, 229.68 141.46, 32 143.3 M576.8 143.3 C401.54 144.23, 225.89 143.49, 32 143.3 M32 143.3 C10.7 143.86, -0.17 133.76, 0 111.3 M32 143.3 C9.35 144.28, -1.66 133.52, 0 111.3 M0 111.3 C-1.53 86.52, -0.85 59.46, 0 32 M0 111.3 C1.66 85.88, 0.51 61.81, 0 32 M0 32 C-0.33 9.54, 9.17 -0.79, 32 0 M0 32 C1.36 10.57, 12.83 -1.65, 32 0" stroke="#000000" stroke-width="1" fill="none"></path></g><g transform="translate(642.8532659420384 4807.934245273242) rotate(0 220.44390869140625 16.800000000000182)"><text x="220.44390869140625" y="0" font-family="Virgil, Segoe UI Emoji" font-size="28px" fill="#000000" text-anchor="middle" style="white-space: pre;" direction="ltr" dominant-baseline="text-before-edge">Solicitar que pieza desea mover</text></g><g stroke-linecap="round"><g transform="translate(857.5667565419849 4666.054766003075) rotate(0 0.11208135187621338 43.19653374423251)"><path d="M-0.96 -0.59 C-0.61 13.55, 0.91 71.03, 1.19 85.68 M0.73 1.71 C1.11 15.94, 0.94 73, 0.86 86.98" stroke="#000000" stroke-width="1" fill="none"></path></g></g><mask></mask></svg>